<svg width="80" height="80" viewBox="0 0 80 80" fill="none" xmlns="http://www.w3.org/2000/svg">
<mask id="mask0" mask-type="alpha" maskUnits="userSpaceOnUse" x="0" y="0" width="80" height="80">
<path d="M0 0H80V80H0V0Z" fill="white"/>
</mask>
<g mask="url(#mask0)">
<path fill-rule="evenodd" clip-rule="evenodd" d="M0 80L80 0L0 80Z" fill="#1D1D1F"/>
<path d="M0 80L80 0" stroke="#1D1D1F" stroke-width="3" stroke-linecap="round" stroke-linejoin="round"/>
<path fill-rule="evenodd" clip-rule="evenodd" d="M20 80L100 0L20 80Z" fill="white"/>
<path d="M20 80L100 0" stroke="#1D1D1F" stroke-width="3" stroke-linecap="round" stroke-linejoin="round"/>
<path fill-rule="evenodd" clip-rule="evenodd" d="M40 80L120 0L40 80Z" fill="white"/>
<path d="M40 80L120 0" stroke="#1D1D1F" stroke-width="3" stroke-linecap="round" stroke-linejoin="round"/>
<path fill-rule="evenodd" clip-rule="evenodd" d="M60 80L140 0L60 80Z" fill="white"/>
<path d="M60 80L140 0" stroke="#1D1D1F" stroke-width="3" stroke-linecap="round" stroke-linejoin="round"/>
<path fill-rule="evenodd" clip-rule="evenodd" d="M-60 80L20 0L-60 80Z" fill="white"/>
<path d="M-60 80L20 0" stroke="#1D1D1F" stroke-width="3" stroke-linecap="round" stroke-linejoin="round"/>
<path fill-rule="evenodd" clip-rule="evenodd" d="M-40 80L40 0L-40 80Z" fill="white"/>
<path d="M-40 80L40 0" stroke="#1D1D1F" stroke-width="3" stroke-linecap="round" stroke-linejoin="round"/>
<path fill-rule="evenodd" clip-rule="evenodd" d="M-20 80L60 0L-20 80Z" fill="white"/>
<path d="M-20 80L60 0" stroke="#1D1D1F" stroke-width="3" stroke-linecap="round" stroke-linejoin="round"/>
</g>
</svg>
